<svg height='100px' width='100px'  fill="#FFFFFF" xmlns="http://www.w3.org/2000/svg" xmlns:xlink="http://www.w3.org/1999/xlink" version="1.1" x="0px" y="0px" viewBox="0 0 100 100" enable-background="new 0 0 100 100" xml:space="preserve"><path d="M26.687,46.884c0.293-0.466,0.913-0.606,1.379-0.311l19.748,12.49l19.748-12.49c0.468-0.297,1.085-0.156,1.38,0.311  s0.156,1.084-0.311,1.379L48.404,61.056c-0.166,0.105-0.351,0.155-0.534,0.155c-0.019,0-0.037-0.006-0.056-0.007  c-0.019,0.001-0.037,0.007-0.056,0.007c-0.183,0-0.368-0.05-0.534-0.155L26.998,48.262C26.531,47.967,26.391,47.35,26.687,46.884z"></path><path d="M26.687,39.255c0.293-0.466,0.913-0.606,1.379-0.311l19.748,12.49l19.748-12.49c0.468-0.297,1.085-0.156,1.38,0.311  s0.156,1.084-0.311,1.379L48.404,53.427c-0.166,0.105-0.351,0.155-0.534,0.155c-0.019,0-0.037-0.006-0.056-0.007  c-0.019,0.001-0.037,0.007-0.056,0.007c-0.183,0-0.368-0.05-0.534-0.155L26.998,40.634C26.531,40.339,26.391,39.721,26.687,39.255z"></path></svg>